<?xml version="1.0" standalone="no"?>
<!DOCTYPE svg PUBLIC "-//W3C//DTD SVG 20010904//EN"
 "http://www.w3.org/TR/2001/REC-SVG-20010904/DTD/svg10.dtd">
<svg version="1.0" xmlns="http://www.w3.org/2000/svg"
 width="512.000000pt" height="512.000000pt" viewBox="0 0 512.000000 512.000000"
 preserveAspectRatio="xMidYMid meet">

<g transform="translate(0.000000,512.000000) scale(0.100000,-0.100000)"
fill="#000000" stroke="none">
<path d="M769 4596 c-102 -27 -181 -95 -228 -196 l-26 -55 0 -1785 0 -1785 26
-56 c37 -79 90 -133 167 -171 l67 -33 1785 0 1785 0 67 33 c77 38 130 92 167
171 l26 56 0 1785 0 1785 -33 67 c-38 77 -92 130 -171 167 l-56 26 -1765 2
c-1378 1 -1775 -1 -1811 -11z m3496 -2036 l0 -1705 -1705 0 -1705 0 -3 1695
c-1 932 0 1701 3 1708 3 10 350 12 1707 10 l1703 -3 0 -1705z"/>
<path d="M1729 3731 c-88 -28 -154 -69 -218 -135 -63 -66 -99 -129 -125 -215
-14 -47 -16 -118 -16 -482 0 -398 1 -431 20 -491 79 -256 356 -410 615 -343
186 49 341 214 374 399 19 105 34 96 -157 96 l-167 0 -18 -49 c-40 -113 -160
-154 -257 -88 -70 47 -70 47 -70 483 0 390 0 391 23 425 35 53 82 79 140 79
86 0 154 -54 172 -137 l7 -33 169 0 169 0 0 28 c0 50 -30 155 -60 211 -64 119
-160 202 -285 246 -88 31 -229 34 -316 6z"/>
<path d="M2562 3738 c3 -7 99 -390 214 -850 l209 -838 171 0 172 0 211 845
c116 465 211 847 211 850 0 3 -78 5 -174 5 l-174 0 -111 -447 c-62 -247 -117
-466 -123 -488 -10 -38 -16 -19 -133 445 l-121 485 -178 3 c-141 2 -177 0
-174 -10z"/>
<path d="M1370 1540 l0 -170 1190 0 1190 0 0 170 0 170 -1190 0 -1190 0 0
-170z"/>
</g>
</svg>
