<?xml version="1.0" standalone="no"?>
<!DOCTYPE svg PUBLIC "-//W3C//DTD SVG 20010904//EN"
 "http://www.w3.org/TR/2001/REC-SVG-20010904/DTD/svg10.dtd">
<svg version="1.0" xmlns="http://www.w3.org/2000/svg"
 width="512.000000pt" height="512.000000pt" viewBox="0 0 512.000000 512.000000"
 preserveAspectRatio="xMidYMid meet">

<g transform="translate(0.000000,512.000000) scale(0.100000,-0.100000)"
fill="#000000" stroke="none">
<path d="M769 4596 c-102 -27 -181 -95 -228 -196 l-26 -55 0 -1785 0 -1785 26
-56 c37 -79 90 -133 167 -171 l67 -33 1785 0 1785 0 67 33 c77 38 130 92 167
171 l26 56 0 1785 0 1785 -33 67 c-38 77 -92 130 -171 167 l-56 26 -1765 2
c-1378 1 -1775 -1 -1811 -11z m1272 -870 c128 -45 226 -129 289 -247 30 -56
60 -161 60 -211 l0 -28 -169 0 -169 0 -7 33 c-18 83 -86 137 -172 137 -58 0
-105 -26 -140 -79 -23 -34 -23 -35 -23 -425 0 -436 0 -436 70 -483 97 -66 217
-25 257 88 l18 49 167 0 c191 0 176 9 157 -96 -33 -185 -188 -350 -374 -399
-259 -67 -536 88 -615 343 -19 60 -20 93 -20 491 0 469 1 477 63 594 34 65
135 165 200 199 124 63 286 77 408 34z m994 -466 c117 -464 123 -483 133 -445
6 22 61 241 123 488 l111 447 174 0 c96 0 174 -2 174 -5 0 -3 -95 -385 -211
-850 l-211 -845 -172 0 -171 0 -209 838 c-115 460 -211 843 -214 850 -3 10 33
12 174 10 l178 -3 121 -485z m715 -1720 l0 -170 -1190 0 -1190 0 0 170 0 170
1190 0 1190 0 0 -170z"/>
</g>
</svg>
